<mxfile host="app.diagrams.net" modified="2023-08-22T19:52:13.793Z" agent="Mozilla/5.0 (Windows NT 10.0; Win64; x64) AppleWebKit/537.36 (KHTML, like Gecko) Chrome/116.0.0.0 Safari/537.36" etag="DxSGbVBHXi_ZfPCdb6sX" version="21.6.8" type="device" pages="2">
  <diagram id="R2lEEEUBdFMjLlhIrx00" name="Page-1">
    <mxGraphModel dx="1202" dy="684" grid="1" gridSize="10" guides="1" tooltips="1" connect="1" arrows="1" fold="1" page="1" pageScale="1" pageWidth="1169" pageHeight="827" math="0" shadow="0" extFonts="Permanent Marker^https://fonts.googleapis.com/css?family=Permanent+Marker">
      <root>
        <mxCell id="0" />
        <mxCell id="1" parent="0" />
        <mxCell id="M78BCPOSf0hAE5HLDOKo-133" value="Admin" style="whiteSpace=wrap;html=1;align=center;fillColor=#0085ff;strokeColor=#1e1e1e;fontColor=#ffffff;" parent="1" vertex="1">
          <mxGeometry x="440" y="100" width="120" height="40" as="geometry" />
        </mxCell>
        <mxCell id="M78BCPOSf0hAE5HLDOKo-135" value="Username" style="ellipse;whiteSpace=wrap;html=1;align=center;fillColor=#69b4ff;fontColor=#000000;strokeColor=#1e1e1e;" parent="1" vertex="1">
          <mxGeometry x="540" y="40" width="100" height="40" as="geometry" />
        </mxCell>
        <mxCell id="M78BCPOSf0hAE5HLDOKo-136" value="ID" style="ellipse;whiteSpace=wrap;html=1;align=center;fillColor=#69b4ff;fontColor=#000000;strokeColor=#1e1e1e;" parent="1" vertex="1">
          <mxGeometry x="370" y="40" width="100" height="40" as="geometry" />
        </mxCell>
        <mxCell id="M78BCPOSf0hAE5HLDOKo-137" value="Password" style="ellipse;whiteSpace=wrap;html=1;align=center;fillColor=#69b4ff;fontColor=#000000;strokeColor=#1e1e1e;" parent="1" vertex="1">
          <mxGeometry x="300" y="100" width="100" height="40" as="geometry" />
        </mxCell>
        <mxCell id="M78BCPOSf0hAE5HLDOKo-138" value="email" style="ellipse;whiteSpace=wrap;html=1;align=center;fillColor=#69b4ff;fontColor=#000000;strokeColor=#1e1e1e;" parent="1" vertex="1">
          <mxGeometry x="600" y="100" width="100" height="40" as="geometry" />
        </mxCell>
        <mxCell id="M78BCPOSf0hAE5HLDOKo-152" value="" style="endArrow=none;html=1;rounded=0;exitX=1;exitY=0.5;exitDx=0;exitDy=0;entryX=0;entryY=0.5;entryDx=0;entryDy=0;strokeColor=#1e1e1e;" parent="1" source="M78BCPOSf0hAE5HLDOKo-137" target="M78BCPOSf0hAE5HLDOKo-133" edge="1">
          <mxGeometry width="50" height="50" relative="1" as="geometry">
            <mxPoint x="390" y="190" as="sourcePoint" />
            <mxPoint x="440" y="140" as="targetPoint" />
          </mxGeometry>
        </mxCell>
        <mxCell id="M78BCPOSf0hAE5HLDOKo-154" value="" style="endArrow=none;html=1;rounded=0;entryX=1;entryY=0.5;entryDx=0;entryDy=0;strokeColor=#1e1e1e;" parent="1" source="M78BCPOSf0hAE5HLDOKo-138" target="M78BCPOSf0hAE5HLDOKo-133" edge="1">
          <mxGeometry width="50" height="50" relative="1" as="geometry">
            <mxPoint x="560" y="180" as="sourcePoint" />
            <mxPoint x="610" y="130" as="targetPoint" />
          </mxGeometry>
        </mxCell>
        <mxCell id="M78BCPOSf0hAE5HLDOKo-157" value="" style="endArrow=none;html=1;rounded=0;exitX=0.5;exitY=1;exitDx=0;exitDy=0;entryX=0.5;entryY=0;entryDx=0;entryDy=0;strokeColor=#1e1e1e;" parent="1" source="M78BCPOSf0hAE5HLDOKo-133" edge="1">
          <mxGeometry width="50" height="50" relative="1" as="geometry">
            <mxPoint x="460" y="180" as="sourcePoint" />
            <mxPoint x="500" y="230" as="targetPoint" />
          </mxGeometry>
        </mxCell>
        <mxCell id="M78BCPOSf0hAE5HLDOKo-158" value="Employee" style="whiteSpace=wrap;html=1;align=center;fillColor=#0085ff;strokeColor=#1e1e1e;fontColor=#ffffff;" parent="1" vertex="1">
          <mxGeometry x="640" y="400" width="120" height="40" as="geometry" />
        </mxCell>
        <mxCell id="UazNVWeU03cG1B9SeD0c-1" value="First_Name" style="ellipse;whiteSpace=wrap;html=1;align=center;fillColor=#69b4ff;strokeColor=#1e1e1e;" vertex="1" parent="1">
          <mxGeometry x="610" y="300" width="100" height="40" as="geometry" />
        </mxCell>
        <mxCell id="UazNVWeU03cG1B9SeD0c-2" value="Last_Name" style="ellipse;whiteSpace=wrap;html=1;align=center;fillColor=#69b4ff;strokeColor=#1e1e1e;" vertex="1" parent="1">
          <mxGeometry x="700" y="260" width="100" height="40" as="geometry" />
        </mxCell>
        <mxCell id="UazNVWeU03cG1B9SeD0c-3" value="Email_Address" style="ellipse;whiteSpace=wrap;html=1;align=center;fillColor=#69b4ff;strokeColor=#1e1e1e;" vertex="1" parent="1">
          <mxGeometry x="810" y="280" width="100" height="40" as="geometry" />
        </mxCell>
        <mxCell id="UazNVWeU03cG1B9SeD0c-4" value="Phone_no" style="ellipse;whiteSpace=wrap;html=1;align=center;fillColor=#69b4ff;strokeColor=#1e1e1e;" vertex="1" parent="1">
          <mxGeometry x="910" y="320" width="100" height="40" as="geometry" />
        </mxCell>
        <mxCell id="UazNVWeU03cG1B9SeD0c-5" value="Salary" style="ellipse;whiteSpace=wrap;html=1;align=center;fillColor=#69b4ff;strokeColor=#1e1e1e;" vertex="1" parent="1">
          <mxGeometry x="610" y="500" width="100" height="40" as="geometry" />
        </mxCell>
        <mxCell id="UazNVWeU03cG1B9SeD0c-6" value="Employee_Id" style="ellipse;whiteSpace=wrap;html=1;align=center;fillColor=#69b4ff;strokeColor=#1e1e1e;" vertex="1" parent="1">
          <mxGeometry x="910" y="480" width="100" height="40" as="geometry" />
        </mxCell>
        <mxCell id="UazNVWeU03cG1B9SeD0c-7" value="Gender" style="ellipse;whiteSpace=wrap;html=1;align=center;fillColor=#69b4ff;strokeColor=#1e1e1e;" vertex="1" parent="1">
          <mxGeometry x="970" y="430" width="100" height="40" as="geometry" />
        </mxCell>
        <mxCell id="UazNVWeU03cG1B9SeD0c-8" value="Date Of Birth" style="ellipse;whiteSpace=wrap;html=1;align=center;fillColor=#69b4ff;strokeColor=#1e1e1e;" vertex="1" parent="1">
          <mxGeometry x="970" y="374" width="100" height="40" as="geometry" />
        </mxCell>
        <mxCell id="UazNVWeU03cG1B9SeD0c-9" value="" style="endArrow=none;html=1;rounded=0;exitX=0.5;exitY=1;exitDx=0;exitDy=0;strokeColor=#1e1e1e;" edge="1" parent="1" source="UazNVWeU03cG1B9SeD0c-1">
          <mxGeometry width="50" height="50" relative="1" as="geometry">
            <mxPoint x="620" y="395" as="sourcePoint" />
            <mxPoint x="690" y="400" as="targetPoint" />
          </mxGeometry>
        </mxCell>
        <mxCell id="UazNVWeU03cG1B9SeD0c-10" value="" style="endArrow=none;html=1;rounded=0;exitX=0.5;exitY=1;exitDx=0;exitDy=0;strokeColor=#1e1e1e;" edge="1" parent="1" source="UazNVWeU03cG1B9SeD0c-2">
          <mxGeometry width="50" height="50" relative="1" as="geometry">
            <mxPoint x="740" y="350" as="sourcePoint" />
            <mxPoint x="710" y="400" as="targetPoint" />
          </mxGeometry>
        </mxCell>
        <mxCell id="UazNVWeU03cG1B9SeD0c-11" value="" style="endArrow=none;html=1;rounded=0;exitX=0.5;exitY=1;exitDx=0;exitDy=0;entryX=0.75;entryY=0;entryDx=0;entryDy=0;strokeColor=#1e1e1e;" edge="1" parent="1" source="UazNVWeU03cG1B9SeD0c-3" target="M78BCPOSf0hAE5HLDOKo-158">
          <mxGeometry width="50" height="50" relative="1" as="geometry">
            <mxPoint x="750" y="360" as="sourcePoint" />
            <mxPoint x="775" y="420" as="targetPoint" />
          </mxGeometry>
        </mxCell>
        <mxCell id="UazNVWeU03cG1B9SeD0c-12" value="" style="endArrow=none;html=1;rounded=0;exitX=0;exitY=1;exitDx=0;exitDy=0;entryX=1;entryY=0;entryDx=0;entryDy=0;strokeColor=#1e1e1e;" edge="1" parent="1" source="UazNVWeU03cG1B9SeD0c-4" target="M78BCPOSf0hAE5HLDOKo-158">
          <mxGeometry width="50" height="50" relative="1" as="geometry">
            <mxPoint x="760" y="370" as="sourcePoint" />
            <mxPoint x="785" y="430" as="targetPoint" />
          </mxGeometry>
        </mxCell>
        <mxCell id="UazNVWeU03cG1B9SeD0c-13" value="" style="endArrow=none;html=1;rounded=0;exitX=0;exitY=0.5;exitDx=0;exitDy=0;entryX=1;entryY=0.25;entryDx=0;entryDy=0;strokeColor=#1e1e1e;" edge="1" parent="1" source="UazNVWeU03cG1B9SeD0c-8" target="M78BCPOSf0hAE5HLDOKo-158">
          <mxGeometry width="50" height="50" relative="1" as="geometry">
            <mxPoint x="985" y="404" as="sourcePoint" />
            <mxPoint x="855" y="420" as="targetPoint" />
          </mxGeometry>
        </mxCell>
        <mxCell id="UazNVWeU03cG1B9SeD0c-14" value="" style="endArrow=none;html=1;rounded=0;exitX=0;exitY=0.5;exitDx=0;exitDy=0;entryX=1;entryY=0.5;entryDx=0;entryDy=0;strokeColor=#1e1e1e;" edge="1" parent="1" source="UazNVWeU03cG1B9SeD0c-7" target="M78BCPOSf0hAE5HLDOKo-158">
          <mxGeometry width="50" height="50" relative="1" as="geometry">
            <mxPoint x="995" y="414" as="sourcePoint" />
            <mxPoint x="850" y="420" as="targetPoint" />
          </mxGeometry>
        </mxCell>
        <mxCell id="UazNVWeU03cG1B9SeD0c-15" value="" style="endArrow=none;html=1;rounded=0;exitX=0;exitY=0.5;exitDx=0;exitDy=0;entryX=1;entryY=1;entryDx=0;entryDy=0;strokeColor=#1e1e1e;" edge="1" parent="1" source="UazNVWeU03cG1B9SeD0c-6" target="M78BCPOSf0hAE5HLDOKo-158">
          <mxGeometry width="50" height="50" relative="1" as="geometry">
            <mxPoint x="925" y="490" as="sourcePoint" />
            <mxPoint x="850" y="440" as="targetPoint" />
          </mxGeometry>
        </mxCell>
        <mxCell id="UazNVWeU03cG1B9SeD0c-16" value="" style="endArrow=none;html=1;rounded=0;exitX=0.5;exitY=0;exitDx=0;exitDy=0;strokeColor=#1e1e1e;" edge="1" parent="1" source="UazNVWeU03cG1B9SeD0c-5" target="M78BCPOSf0hAE5HLDOKo-158">
          <mxGeometry width="50" height="50" relative="1" as="geometry">
            <mxPoint x="935" y="500" as="sourcePoint" />
            <mxPoint x="760" y="440" as="targetPoint" />
          </mxGeometry>
        </mxCell>
        <mxCell id="UazNVWeU03cG1B9SeD0c-18" value="Hire_Date" style="ellipse;whiteSpace=wrap;html=1;align=center;fillColor=#69b4ff;strokeColor=#1e1e1e;" vertex="1" parent="1">
          <mxGeometry x="810" y="520" width="100" height="40" as="geometry" />
        </mxCell>
        <mxCell id="UazNVWeU03cG1B9SeD0c-19" value="Designation" style="ellipse;whiteSpace=wrap;html=1;align=center;fillColor=#69b4ff;strokeColor=#1e1e1e;" vertex="1" parent="1">
          <mxGeometry x="700" y="540" width="100" height="40" as="geometry" />
        </mxCell>
        <mxCell id="UazNVWeU03cG1B9SeD0c-20" value="" style="endArrow=none;html=1;rounded=0;entryX=0.75;entryY=1;entryDx=0;entryDy=0;strokeColor=#1e1e1e;" edge="1" parent="1" source="UazNVWeU03cG1B9SeD0c-18" target="M78BCPOSf0hAE5HLDOKo-158">
          <mxGeometry width="50" height="50" relative="1" as="geometry">
            <mxPoint x="1010" y="460" as="sourcePoint" />
            <mxPoint x="855" y="440" as="targetPoint" />
          </mxGeometry>
        </mxCell>
        <mxCell id="UazNVWeU03cG1B9SeD0c-21" value="" style="endArrow=none;html=1;rounded=0;exitX=0.5;exitY=0;exitDx=0;exitDy=0;entryX=0.6;entryY=0.957;entryDx=0;entryDy=0;entryPerimeter=0;strokeColor=#1e1e1e;" edge="1" parent="1" source="UazNVWeU03cG1B9SeD0c-19" target="M78BCPOSf0hAE5HLDOKo-158">
          <mxGeometry width="50" height="50" relative="1" as="geometry">
            <mxPoint x="1020" y="470" as="sourcePoint" />
            <mxPoint x="865" y="450" as="targetPoint" />
          </mxGeometry>
        </mxCell>
        <mxCell id="UazNVWeU03cG1B9SeD0c-22" value="" style="edgeStyle=entityRelationEdgeStyle;fontSize=12;html=1;endArrow=ERoneToMany;rounded=0;exitX=1;exitY=0.5;exitDx=0;exitDy=0;entryX=0;entryY=0.25;entryDx=0;entryDy=0;strokeColor=#1e1e1e;" edge="1" parent="1" source="UazNVWeU03cG1B9SeD0c-34" target="M78BCPOSf0hAE5HLDOKo-158">
          <mxGeometry width="100" height="100" relative="1" as="geometry">
            <mxPoint x="540" y="270" as="sourcePoint" />
            <mxPoint x="660" y="340" as="targetPoint" />
          </mxGeometry>
        </mxCell>
        <mxCell id="UazNVWeU03cG1B9SeD0c-23" value="&lt;span style=&quot;background-color: rgb(0, 133, 255);&quot;&gt;Payroll&lt;/span&gt;" style="whiteSpace=wrap;html=1;align=center;fillColor=#0085ff;strokeColor=#1e1e1e;fontColor=#ffffff;" vertex="1" parent="1">
          <mxGeometry x="240" y="400" width="120" height="40" as="geometry" />
        </mxCell>
        <mxCell id="UazNVWeU03cG1B9SeD0c-24" value="" style="edgeStyle=entityRelationEdgeStyle;fontSize=12;html=1;endArrow=ERmany;rounded=0;exitX=0;exitY=0.5;exitDx=0;exitDy=0;entryX=1;entryY=0.25;entryDx=0;entryDy=0;strokeColor=#1e1e1e;" edge="1" parent="1" source="UazNVWeU03cG1B9SeD0c-34" target="UazNVWeU03cG1B9SeD0c-23">
          <mxGeometry width="100" height="100" relative="1" as="geometry">
            <mxPoint x="460" y="270" as="sourcePoint" />
            <mxPoint x="570" y="320" as="targetPoint" />
          </mxGeometry>
        </mxCell>
        <mxCell id="UazNVWeU03cG1B9SeD0c-25" value="Net Salary" style="ellipse;whiteSpace=wrap;html=1;align=center;fillColor=#69b4ff;strokeColor=#1e1e1e;" vertex="1" parent="1">
          <mxGeometry x="160" y="290" width="100" height="40" as="geometry" />
        </mxCell>
        <mxCell id="UazNVWeU03cG1B9SeD0c-26" value="" style="endArrow=none;html=1;rounded=0;exitX=1;exitY=1;exitDx=0;exitDy=0;entryX=0.25;entryY=0;entryDx=0;entryDy=0;strokeColor=#1e1e1e;" edge="1" parent="1" source="M78BCPOSf0hAE5HLDOKo-136" target="M78BCPOSf0hAE5HLDOKo-133">
          <mxGeometry width="50" height="50" relative="1" as="geometry">
            <mxPoint x="400" y="70" as="sourcePoint" />
            <mxPoint x="480" y="70" as="targetPoint" />
          </mxGeometry>
        </mxCell>
        <mxCell id="UazNVWeU03cG1B9SeD0c-27" value="" style="endArrow=none;html=1;rounded=0;entryX=0.75;entryY=0;entryDx=0;entryDy=0;exitX=0;exitY=1;exitDx=0;exitDy=0;strokeColor=#1e1e1e;" edge="1" parent="1" source="M78BCPOSf0hAE5HLDOKo-135" target="M78BCPOSf0hAE5HLDOKo-133">
          <mxGeometry width="50" height="50" relative="1" as="geometry">
            <mxPoint x="515" y="40" as="sourcePoint" />
            <mxPoint x="540" y="86" as="targetPoint" />
          </mxGeometry>
        </mxCell>
        <mxCell id="UazNVWeU03cG1B9SeD0c-28" value="Net Salary" style="ellipse;whiteSpace=wrap;html=1;align=center;fillColor=#69b4ff;strokeColor=#1e1e1e;" vertex="1" parent="1">
          <mxGeometry x="270" y="320" width="100" height="40" as="geometry" />
        </mxCell>
        <mxCell id="UazNVWeU03cG1B9SeD0c-29" value="transcation_id" style="ellipse;whiteSpace=wrap;html=1;align=center;fillColor=#69b4ff;strokeColor=#1e1e1e;" vertex="1" parent="1">
          <mxGeometry x="60" y="360" width="100" height="40" as="geometry" />
        </mxCell>
        <mxCell id="UazNVWeU03cG1B9SeD0c-30" value="Employee_Id" style="ellipse;whiteSpace=wrap;html=1;align=center;fillColor=#69b4ff;strokeColor=#1e1e1e;" vertex="1" parent="1">
          <mxGeometry x="60" y="440" width="100" height="40" as="geometry" />
        </mxCell>
        <mxCell id="UazNVWeU03cG1B9SeD0c-31" value="Salary_Year" style="ellipse;whiteSpace=wrap;html=1;align=center;fillColor=#69b4ff;strokeColor=#1e1e1e;" vertex="1" parent="1">
          <mxGeometry x="160" y="500" width="100" height="40" as="geometry" />
        </mxCell>
        <mxCell id="UazNVWeU03cG1B9SeD0c-32" value="Salary_Month" style="ellipse;whiteSpace=wrap;html=1;align=center;fillColor=#69b4ff;strokeColor=#1e1e1e;" vertex="1" parent="1">
          <mxGeometry x="270" y="480" width="100" height="40" as="geometry" />
        </mxCell>
        <mxCell id="UazNVWeU03cG1B9SeD0c-34" value="Manage" style="shape=rhombus;perimeter=rhombusPerimeter;whiteSpace=wrap;html=1;align=center;fillColor=#e0ffff;strokeColor=#1e1e1e;" vertex="1" parent="1">
          <mxGeometry x="440" y="230" width="120" height="60" as="geometry" />
        </mxCell>
        <mxCell id="UazNVWeU03cG1B9SeD0c-35" value="Reciept" style="shape=rhombus;perimeter=rhombusPerimeter;whiteSpace=wrap;html=1;align=center;fillColor=#e0ffff;strokeColor=#1e1e1e;" vertex="1" parent="1">
          <mxGeometry x="440" y="400" width="120" height="60" as="geometry" />
        </mxCell>
        <mxCell id="UazNVWeU03cG1B9SeD0c-36" value="" style="edgeStyle=entityRelationEdgeStyle;fontSize=12;html=1;endArrow=ERone;endFill=1;rounded=0;entryX=0;entryY=0.75;entryDx=0;entryDy=0;exitX=1;exitY=0.5;exitDx=0;exitDy=0;strokeColor=#1e1e1e;" edge="1" parent="1" source="UazNVWeU03cG1B9SeD0c-35" target="M78BCPOSf0hAE5HLDOKo-158">
          <mxGeometry width="100" height="100" relative="1" as="geometry">
            <mxPoint x="570" y="460" as="sourcePoint" />
            <mxPoint x="590" y="380" as="targetPoint" />
          </mxGeometry>
        </mxCell>
        <mxCell id="UazNVWeU03cG1B9SeD0c-37" value="" style="edgeStyle=entityRelationEdgeStyle;fontSize=12;html=1;endArrow=ERone;endFill=1;rounded=0;exitX=0;exitY=0.5;exitDx=0;exitDy=0;entryX=1;entryY=0.75;entryDx=0;entryDy=0;strokeColor=#1e1e1e;" edge="1" parent="1" source="UazNVWeU03cG1B9SeD0c-35" target="UazNVWeU03cG1B9SeD0c-23">
          <mxGeometry width="100" height="100" relative="1" as="geometry">
            <mxPoint x="350" y="480" as="sourcePoint" />
            <mxPoint x="450" y="380" as="targetPoint" />
          </mxGeometry>
        </mxCell>
        <mxCell id="UazNVWeU03cG1B9SeD0c-38" value="" style="endArrow=none;html=1;rounded=0;exitX=1;exitY=0.5;exitDx=0;exitDy=0;entryX=0;entryY=0.25;entryDx=0;entryDy=0;strokeColor=#1e1e1e;" edge="1" parent="1" source="UazNVWeU03cG1B9SeD0c-29" target="UazNVWeU03cG1B9SeD0c-23">
          <mxGeometry relative="1" as="geometry">
            <mxPoint x="170" y="380" as="sourcePoint" />
            <mxPoint x="330" y="379.65999999999997" as="targetPoint" />
          </mxGeometry>
        </mxCell>
        <mxCell id="UazNVWeU03cG1B9SeD0c-39" value="" style="endArrow=none;html=1;rounded=0;exitX=1;exitY=0.5;exitDx=0;exitDy=0;entryX=0.01;entryY=0.885;entryDx=0;entryDy=0;entryPerimeter=0;strokeColor=#1e1e1e;" edge="1" parent="1" source="UazNVWeU03cG1B9SeD0c-30" target="UazNVWeU03cG1B9SeD0c-23">
          <mxGeometry relative="1" as="geometry">
            <mxPoint x="170" y="460.35" as="sourcePoint" />
            <mxPoint x="330" y="459.66" as="targetPoint" />
          </mxGeometry>
        </mxCell>
        <mxCell id="UazNVWeU03cG1B9SeD0c-40" value="" style="endArrow=none;html=1;rounded=0;exitX=0.5;exitY=1;exitDx=0;exitDy=0;entryX=0.25;entryY=0;entryDx=0;entryDy=0;strokeColor=#1e1e1e;" edge="1" parent="1" source="UazNVWeU03cG1B9SeD0c-25" target="UazNVWeU03cG1B9SeD0c-23">
          <mxGeometry relative="1" as="geometry">
            <mxPoint x="320" y="430" as="sourcePoint" />
            <mxPoint x="480" y="430" as="targetPoint" />
          </mxGeometry>
        </mxCell>
        <mxCell id="UazNVWeU03cG1B9SeD0c-41" value="" style="endArrow=none;html=1;rounded=0;exitX=0.5;exitY=1;exitDx=0;exitDy=0;entryX=0.5;entryY=0;entryDx=0;entryDy=0;strokeColor=#1e1e1e;" edge="1" parent="1" source="UazNVWeU03cG1B9SeD0c-28" target="UazNVWeU03cG1B9SeD0c-23">
          <mxGeometry relative="1" as="geometry">
            <mxPoint x="220" y="340" as="sourcePoint" />
            <mxPoint x="280" y="410" as="targetPoint" />
          </mxGeometry>
        </mxCell>
        <mxCell id="UazNVWeU03cG1B9SeD0c-42" value="" style="endArrow=none;html=1;rounded=0;exitX=0.5;exitY=0;exitDx=0;exitDy=0;entryX=0.5;entryY=1;entryDx=0;entryDy=0;strokeColor=#1e1e1e;" edge="1" parent="1" source="UazNVWeU03cG1B9SeD0c-32" target="UazNVWeU03cG1B9SeD0c-23">
          <mxGeometry relative="1" as="geometry">
            <mxPoint x="330" y="370" as="sourcePoint" />
            <mxPoint x="310" y="410" as="targetPoint" />
          </mxGeometry>
        </mxCell>
        <mxCell id="UazNVWeU03cG1B9SeD0c-43" value="" style="endArrow=none;html=1;rounded=0;exitX=0.5;exitY=0;exitDx=0;exitDy=0;entryX=0.25;entryY=1;entryDx=0;entryDy=0;strokeColor=#1e1e1e;" edge="1" parent="1" source="UazNVWeU03cG1B9SeD0c-31" target="UazNVWeU03cG1B9SeD0c-23">
          <mxGeometry relative="1" as="geometry">
            <mxPoint x="220" y="340" as="sourcePoint" />
            <mxPoint x="280" y="410" as="targetPoint" />
          </mxGeometry>
        </mxCell>
      </root>
    </mxGraphModel>
  </diagram>
  <diagram id="jS0s67isaQMvAIUPyTwj" name="Page-2">
    <mxGraphModel dx="1022" dy="581" grid="1" gridSize="10" guides="1" tooltips="1" connect="1" arrows="1" fold="1" page="1" pageScale="1" pageWidth="1169" pageHeight="827" math="0" shadow="0">
      <root>
        <mxCell id="0" />
        <mxCell id="1" parent="0" />
      </root>
    </mxGraphModel>
  </diagram>
</mxfile>
